<svg xmlns="http://www.w3.org/2000/svg" viewBox="0 0 900 700" role="img" aria-label="O nas">
  <defs>
    <linearGradient id="g" x1="0" y1="0" x2="1" y2="1">
      <stop offset="0" stop-color="#8B5CF6"/><stop offset="1" stop-color="#2563EB"/>
    </linearGradient>
    <pattern id="d" width="46" height="46" patternUnits="userSpaceOnUse">
      <circle cx="10" cy="10" r="4" fill="#ffffff" opacity="0.18"/>
      <circle cx="33" cy="30" r="2.5" fill="#ffffff" opacity="0.14"/>
    </pattern>
  </defs>
  <rect width="900" height="700" fill="url(#g)"/>
  <rect width="900" height="700" fill="url(#d)"/>
  <g transform="translate(450 350)" fill="#ffffff" opacity="0.92">
    <path transform="translate(-26,-54) scale(1.05)" d="M25 45C10 33 2 26 2 16 2 9 8 4 14 4c4 0 8 2 11 6 3-4 7-6 11-6 6 0 12 5 12 12 0 10-8 17-23 29z"/>
    <text x="0" y="64" font-family="'Baloo 2', Verdana, sans-serif" font-size="22" font-weight="700" text-anchor="middle">O nas</text>
  </g>
</svg>
